<svg width="24" height="24" viewBox="0 0 24 24" fill="none" xmlns="http://www.w3.org/2000/svg">
<path fill-rule="evenodd" clip-rule="evenodd" d="M6.68414 3.87498C6.68414 2.83946 7.56778 2 8.65781 2H15.2367C16.3267 2 17.2104 2.83946 17.2104 3.87498V20.1248C17.2104 21.1604 16.3267 21.9998 15.2367 21.9998H8.65781C7.56778 21.9998 6.68414 21.1604 6.68414 20.1248V3.87498ZM15.2367 2.93749H8.65781C8.1128 2.93749 7.67098 3.35722 7.67098 3.87498V19.6888C7.67098 19.7992 7.76052 19.8888 7.87098 19.8888H16.0235C16.134 19.8888 16.2235 19.7992 16.2235 19.6888V3.87498C16.2235 3.35722 15.7817 2.93749 15.2367 2.93749Z" fill="#C23503"/>
<path d="M9.31604 2.90225C9.31604 2.52852 9.61059 2 9.97393 2H13.9213C14.2846 2 14.5792 2.52852 14.5792 2.90225C14.5792 3.27597 14.2846 3.57893 13.9213 3.57893H9.97393C9.61059 3.57893 9.31604 3.27597 9.31604 2.90225Z" fill="#C23503"/>
<path d="M11.4504 20.8335C11.4504 20.5574 11.6742 20.3335 11.9504 20.3335C12.2265 20.3335 12.4504 20.5574 12.4504 20.8335C12.4504 21.1096 12.2265 21.3335 11.9504 21.3335C11.6742 21.3335 11.4504 21.1096 11.4504 20.8335Z" fill="white"/>
</svg>
