<svg width="24" height="24" viewBox="0 0 24 24" fill="none" xmlns="http://www.w3.org/2000/svg">
<path d="M12.3281 3C8.8388 3 6 5.8388 6 9.32812C6 10.5071 6.32657 11.6576 6.94461 12.6557L11.9679 20.7507C12.0641 20.9058 12.2337 21 12.416 21C12.4174 21 12.4188 21 12.4202 21C12.6041 20.9986 12.7739 20.9014 12.8684 20.7436L17.7637 12.5702C18.3476 11.5932 18.6562 10.4721 18.6562 9.32812C18.6562 5.8388 15.8175 3 12.3281 3ZM16.8586 12.0288L12.408 19.4597L7.84103 12.1001C7.32659 11.2692 7.04766 10.3107 7.04766 9.32812C7.04766 6.42035 9.42035 4.04766 12.3281 4.04766C15.2359 4.04766 17.6051 6.42035 17.6051 9.32812C17.6051 10.2816 17.3445 11.2156 16.8586 12.0288Z" fill="white"/>
<path d="M12.3281 6.16406C10.5835 6.16406 9.16406 7.58346 9.16406 9.32812C9.16406 11.0616 10.5604 12.4922 12.3281 12.4922C14.1177 12.4922 15.4922 11.0426 15.4922 9.32812C15.4922 7.58346 14.0728 6.16406 12.3281 6.16406ZM12.3281 11.4445C11.1589 11.4445 10.2117 10.4942 10.2117 9.32812C10.2117 8.16502 11.165 7.21172 12.3281 7.21172C13.4912 7.21172 14.441 8.16502 14.441 9.32812C14.441 10.4771 13.5158 11.4445 12.3281 11.4445Z" fill="white"/>
</svg>
