<svg width="100" height="100" viewBox="0 0 100 100" fill="none" xmlns="http://www.w3.org/2000/svg">
<path d="M96 66.42C96 55.0644 89.4854 44.9298 79.7285 40C79.4255 61.773 61.773 79.4255 40 79.7285C44.9298 89.4854 55.0644 96 66.42 96C71.7443 96 76.9219 94.582 81.4711 91.8878L95.8708 95.8708L91.8878 81.4711C94.582 76.9219 96 71.7443 96 66.42Z" fill="black"/>
<path d="M75 39.5C75 19.9249 59.0751 4 39.5 4C19.9249 4 4 19.9249 4 39.5C4 45.8796 5.69811 52.0911 8.92267 57.5444L4.13051 74.8688L21.4556 70.0773C26.9089 73.3019 33.1204 75 39.5 75C59.0751 75 75 59.0751 75 39.5ZM34.0524 31.2379H28.6049C28.6049 25.2299 33.4921 20.3427 39.5 20.3427C45.5079 20.3427 50.3951 25.2299 50.3951 31.2379C50.3951 34.2872 49.1042 37.2181 46.8521 39.278L42.2238 43.514V47.7621H36.7762V41.1151L43.1743 35.259C44.3177 34.2127 44.9476 32.7849 44.9476 31.2379C44.9476 28.2339 42.504 25.7903 39.5 25.7903C36.496 25.7903 34.0524 28.2339 34.0524 31.2379ZM36.7762 53.2097H42.2238V58.6573H36.7762V53.2097Z" fill="black"/>
</svg>
