<svg width="48" height="48" viewBox="0 0 48 48" fill="none" xmlns="http://www.w3.org/2000/svg">
<g clip-path="url(#clip0)">
<path d="M45.5386 2.8158H30.5729C29.2142 2.8158 28.1115 3.91852 28.1115 5.27724V20.2428C28.1115 21.6016 29.2142 22.7043 30.5729 22.7043H37.7358C37.6422 26.623 36.7315 29.7588 35.0085 32.1169C33.6498 33.9777 31.592 35.5186 28.8401 36.7345C27.5749 37.2908 27.0285 38.7874 27.6192 40.0379L29.3915 43.7793C29.9625 44.9804 31.3754 45.5072 32.5963 44.9804C35.8552 43.5725 38.6072 41.7904 40.852 39.6243C43.5891 36.9807 45.4647 33.9974 46.4788 30.6695C47.493 27.3417 48 22.8028 48 17.043V5.27724C48 3.91857 46.8972 2.8158 45.5386 2.8158Z" fill="#C23503"/>
<path d="M5.22005 44.9706C8.43962 43.5675 11.1768 41.7855 13.4364 39.6243C16.1981 36.9807 18.0836 34.0073 19.0977 30.704C20.1118 27.4007 20.6188 22.8471 20.6188 17.043V5.27724C20.6188 3.91852 19.5161 2.8158 18.1574 2.8158H3.19177C1.83305 2.8158 0.73032 3.91852 0.73032 5.27724V20.2428C0.73032 21.6016 1.83305 22.7043 3.19177 22.7043H10.3546C10.261 26.623 9.35031 29.7588 7.6273 32.1169C6.26858 33.9777 4.21081 35.5186 1.45891 36.7345C0.193724 37.2908 -0.352717 38.7874 0.23803 40.0379L2.00535 43.7694C2.57645 44.9706 3.99917 45.5023 5.22005 44.9706Z" fill="#C23503"/>
</g>
<defs>
<clipPath id="clip0">
<rect width="48" height="48" fill="white"/>
</clipPath>
</defs>
</svg>
