<svg width="100" height="100" viewBox="0 0 100 100" fill="none" xmlns="http://www.w3.org/2000/svg">
<path d="M97.1406 13.671C95.6695 12.1974 93.2826 12.1949 91.8115 13.6648L46.598 58.7589L30.2851 41.0416C28.8755 39.5115 26.4923 39.4123 24.9597 40.8216C23.4283 42.2312 23.3302 44.6156 24.7398 46.147L43.7097 66.7488C44.4044 67.5039 45.3767 67.9423 46.4019 67.9636C46.4294 67.9648 46.456 67.9648 46.4824 67.9648C47.4787 67.9648 48.4371 67.5691 49.1431 66.8656L97.1332 19.0013C98.608 17.5316 98.6105 15.1447 97.1406 13.671Z" fill="#C23503"/>
<path d="M96.2311 46.2311C94.1494 46.2311 92.4623 47.9182 92.4623 50C92.4623 73.4146 73.4146 92.4623 50 92.4623C26.5867 92.4623 7.53769 73.4146 7.53769 50C7.53769 26.5867 26.5867 7.53769 50 7.53769C52.0816 7.53769 53.7689 5.85059 53.7689 3.76895C53.7689 1.68711 52.0816 0 50 0C22.4297 0 0 22.4297 0 50C0 77.5691 22.4297 100 50 100C77.5691 100 100 77.5691 100 50C100 47.9184 98.3129 46.2311 96.2311 46.2311Z" fill="black"/>
</svg>
