<svg width="24" height="24" viewBox="0 0 24 24" fill="none" xmlns="http://www.w3.org/2000/svg">
<rect width="24" height="24" rx="6" fill="white"/>
<rect width="24" height="24" rx="5" fill="#36AEE2"/>
<path d="M19.0681 5.9392C18.8898 5.72026 18.6229 5.59961 18.3165 5.59961C18.1498 5.59961 17.9734 5.63494 17.7919 5.7045L5.44323 10.4403C4.78791 10.6916 4.69965 11.0687 4.70532 11.2712C4.711 11.4735 4.82041 11.845 5.48887 12.0586C5.49287 12.0599 5.49688 12.061 5.50089 12.0623L7.2327 12.5601L15.6669 8.23103C15.8771 8.12302 16.1346 8.20688 16.242 8.41811C16.3264 8.58404 16.2925 8.77906 16.1723 8.90742L16.1727 8.90776L11.4832 13.9138L11.3494 14.4584L13.024 15.8132L15.3446 17.6905C15.3466 17.6921 15.3486 17.6938 15.3507 17.6954C15.606 17.8944 15.885 17.9995 16.1573 17.9996C16.6895 17.9996 17.1132 17.6039 17.2367 16.9916L19.26 6.95429C19.3411 6.55152 19.273 6.19091 19.0681 5.9392Z" fill="white"/>
<path d="M10.937 13.5026C10.9544 13.4321 10.9895 13.365 11.0428 13.3084L14.1874 9.97607L8.35214 12.9491L9.67712 16.7281C9.75264 16.9434 9.86502 17.1267 10.004 17.2702L10.9368 13.5024L10.937 13.5026Z" fill="white"/>
<path d="M10.5407 17.9998C10.9103 17.9973 11.2734 17.8719 11.5915 17.6363L12.729 16.7938L11.2124 15.8115L10.5407 17.9998Z" fill="white"/>
</svg>
