<svg width="70" height="70" viewBox="0 0 70 70" fill="none" xmlns="http://www.w3.org/2000/svg">
<path fill-rule="evenodd" clip-rule="evenodd" d="M6.82934 3.06072C9.67487 5.05259 14.5123 9.54852 11.0976 11.5973C7.7692 13.5944 4.95988 12.4768 3.47926 11.8878C3.06116 11.7215 2.74902 11.5973 2.56104 11.5973C1.70739 11.5973 5.12202 19.2802 11.9513 18.4266C13.6586 18.4266 15.1952 19.1095 17.9269 21.8412C28.8448 32.2392 51.0654 53.7262 55.1459 57.7751C55.2727 57.9009 55.4021 58.0233 55.5313 58.1455C55.8523 58.449 56.1718 58.7512 56.4454 59.1004C56.8808 59.6562 57.3482 60.491 57.5248 61.5508C57.5248 64.4216 59.852 66.7488 62.7228 66.7488C65.5936 66.7488 67.9208 64.4216 67.9208 61.5508C67.9208 59.4841 66.7147 57.6991 64.968 56.8613C64.4171 56.5971 63.8139 56.4463 63.2149 56.2965C62.3049 56.0689 61.4044 55.8438 60.7107 55.2268C60.6766 55.1964 60.6429 55.1654 60.6098 55.1339L24.7562 20.9875C20.8476 17.079 19.0865 15.3179 18.162 12.4269C17.9876 11.8817 17.9359 11.3052 17.9015 10.7339C17.4357 3.00337 10.6745 2.23676 6.82934 3.06072ZM62.8817 58.4319C62.6055 58.4319 62.3817 58.6558 62.3817 58.9319V59.2033C62.0532 59.27 61.7475 59.3992 61.4776 59.5781L61.2855 59.386C61.0903 59.1907 60.7737 59.1907 60.5784 59.386L60.5581 59.4063C60.3628 59.6016 60.3628 59.9182 60.5581 60.1134L60.7502 60.3056C60.5714 60.5755 60.4422 60.8812 60.3756 61.2096H60.104C59.8279 61.2096 59.604 61.4335 59.604 61.7096V61.7384C59.604 62.0145 59.8279 62.2384 60.104 62.2384H60.3757C60.4424 62.5667 60.5716 62.8723 60.7504 63.1422L60.558 63.3346C60.3628 63.5298 60.3628 63.8464 60.558 64.0417L60.5784 64.062C60.7736 64.2573 61.0902 64.2573 61.2855 64.062L61.4779 63.8696C61.7478 64.0484 62.0534 64.1775 62.3816 64.2442V64.5161C62.3816 64.7922 62.6055 65.0161 62.8816 65.0161H62.9104C63.1866 65.0161 63.4104 64.7922 63.4104 64.5161V64.2442C63.7387 64.1776 64.0443 64.0484 64.3143 63.8697L64.5066 64.062C64.7019 64.2573 65.0184 64.2573 65.2137 64.062L65.2341 64.0417C65.4293 63.8464 65.4293 63.5298 65.2341 63.3346L65.0418 63.1423C65.2206 62.8724 65.3498 62.5668 65.4165 62.2384H65.6881C65.9643 62.2384 66.1881 62.0146 66.1881 61.7384V61.7096C66.1881 61.4335 65.9643 61.2096 65.6881 61.2096H65.4166C65.35 60.8812 65.2208 60.5755 65.042 60.3055L65.234 60.1134C65.4293 59.9182 65.4293 59.6016 65.234 59.4063L65.2137 59.386C65.0184 59.1907 64.7018 59.1907 64.5066 59.386L64.3146 59.578C64.0446 59.3992 63.7389 59.2699 63.4104 59.2033V58.9319C63.4104 58.6558 63.1866 58.4319 62.9104 58.4319H62.8817Z" fill="black"/>
<path fill-rule="evenodd" clip-rule="evenodd" d="M46.8223 20.5578L10.4298 55.1339C10.2223 55.3314 9.99313 55.5061 9.76219 55.6577C9.17697 56.0417 8.49329 56.187 7.80525 56.3332C7.44455 56.4098 7.08265 56.4867 6.7331 56.5984C4.63675 57.2682 3.11875 59.2322 3.11875 61.5508C3.11875 64.4216 5.44598 66.7488 8.31677 66.7488C11.1876 66.7488 13.5148 64.4216 13.5148 61.5508C13.7298 60.2609 14.3754 59.3044 14.87 58.7783C15.0122 58.6271 15.1649 58.4885 15.3179 58.3496C15.4168 58.2599 15.5157 58.1701 15.612 58.0767C18.8496 54.9371 42.4301 32.2021 53.6515 21.4191C54.0815 21.0409 54.4113 20.7178 54.7024 20.4327C55.5726 19.5803 56.0974 19.0662 57.9198 18.4266C64.7491 19.2802 68.1637 11.5973 67.31 11.5973C67.1221 11.5973 66.8099 11.7215 66.3918 11.8878C64.9112 12.4768 62.1019 13.5944 58.7735 11.5973C55.3588 9.54852 60.1962 5.05259 63.0418 3.06072C59.1829 2.23382 52.3871 3.00886 51.9649 10.817C51.9369 11.335 51.8915 11.8547 51.758 12.356C50.8961 15.593 49.4753 17.4558 46.8223 20.5578ZM8.12908 58.4319C7.85294 58.4319 7.62908 58.6558 7.62908 58.9319V59.2033C7.30067 59.27 6.99498 59.3992 6.725 59.5781L6.53295 59.386C6.33768 59.1907 6.0211 59.1907 5.82584 59.386L5.8055 59.4063C5.61024 59.6016 5.61024 59.9182 5.8055 60.1134L5.99762 60.3056C5.81883 60.5756 5.68964 60.8812 5.62301 61.2096H5.35144C5.07529 61.2096 4.85144 61.4335 4.85144 61.7096V61.7384C4.85144 62.0146 5.07529 62.2384 5.35144 62.2384H5.62313C5.68981 62.5667 5.81903 62.8723 5.99781 63.1422L5.80548 63.3345C5.61021 63.5298 5.61021 63.8464 5.80548 64.0416L5.82582 64.062C6.02108 64.2572 6.33767 64.2572 6.53293 64.062L6.72529 63.8696C6.9952 64.0484 7.30078 64.1775 7.62908 64.2442V64.5161C7.62908 64.7922 7.85294 65.0161 8.12908 65.0161H8.15785C8.43399 65.0161 8.65785 64.7922 8.65785 64.5161V64.2442C8.98618 64.1776 9.29179 64.0484 9.56172 63.8697L9.75403 64.062C9.9493 64.2572 10.2659 64.2572 10.4611 64.062L10.4815 64.0416C10.6767 63.8464 10.6767 63.5298 10.4815 63.3345L10.2892 63.1423C10.468 62.8724 10.5973 62.5667 10.664 62.2384H10.9355C11.2117 62.2384 11.4355 62.0146 11.4355 61.7384V61.7096C11.4355 61.4335 11.2117 61.2096 10.9355 61.2096H10.6641C10.5975 60.8812 10.4682 60.5755 10.2894 60.3055L10.4815 60.1134C10.6768 59.9182 10.6768 59.6016 10.4815 59.4063L10.4611 59.386C10.2659 59.1907 9.9493 59.1907 9.75404 59.386L9.56203 59.578C9.29202 59.3992 8.9863 59.2699 8.65785 59.2032V58.9319C8.65785 58.6558 8.43399 58.4319 8.15785 58.4319H8.12908Z" fill="black"/>
<path d="M0.5 51.3289V23.0852L34.1492 14.6729L69.5 23.0898V51.3243L34.1492 59.7412L0.5 51.3289Z" fill="white" stroke="black"/>
<path d="M4.66663 36.6158V26.8899C4.66663 26.6767 4.7317 26.4999 4.86186 26.3595C4.99201 26.2191 5.15591 26.1489 5.35355 26.1489H12.3385C12.5361 26.1489 12.6976 26.2191 12.8229 26.3595C12.9531 26.4999 13.0182 26.6767 13.0182 26.8899V27.623C13.0182 27.8362 12.9531 28.013 12.8229 28.1534C12.6976 28.2886 12.5361 28.3562 12.3385 28.3562H7.39262V36.6158C7.39262 36.8186 7.32514 36.9902 7.19016 37.1306C7.06001 37.2657 6.90093 37.3333 6.71293 37.3333H5.35355C5.16555 37.3333 5.00406 37.2657 4.86909 37.1306C4.73411 36.9902 4.66663 36.8186 4.66663 36.6158Z" fill="black"/>
<path d="M12.1577 36.6158L13.9726 29.1907C14.4643 27.1681 16.0647 26.1541 18.7738 26.1489H22.6712C22.8496 26.1489 22.9966 26.2217 23.1123 26.3673C23.2328 26.5129 23.2931 26.6819 23.2931 26.8743V36.6158C23.2931 36.8186 23.2256 36.9902 23.0906 37.1306C22.9556 37.2657 22.7941 37.3333 22.6061 37.3333H21.2468C21.0491 37.3333 20.8852 37.2657 20.7551 37.1306C20.6297 36.9902 20.5671 36.8134 20.5671 36.6002V34.6347H15.426L14.9415 36.6002C14.8933 36.8134 14.7849 36.9902 14.6162 37.1306C14.4474 37.2657 14.2691 37.3333 14.0811 37.3333H12.6566C12.4686 37.3333 12.3264 37.2631 12.23 37.1228C12.1625 37.0292 12.1288 36.9226 12.1288 36.803C12.1336 36.7458 12.1432 36.6834 12.1577 36.6158ZM15.9611 32.4275H20.5671V28.3562H18.5063C18.0435 28.3562 17.6386 28.4992 17.2915 28.7851C16.9493 29.0659 16.7179 29.4455 16.5974 29.9239L15.9611 32.4275Z" fill="black"/>
<path d="M25.3611 36.6002V26.8899C25.3611 26.6871 25.4261 26.5129 25.5563 26.3673C25.6865 26.2217 25.8455 26.1489 26.0335 26.1489H31.5506C34.4622 26.1489 35.918 27.5996 35.918 30.501C35.9228 33.3972 34.467 34.8453 31.5506 34.8453H28.0871V36.6002C28.0871 36.803 28.0196 36.9772 27.8846 37.1228C27.7544 37.2631 27.5954 37.3333 27.4074 37.3333H26.048C25.86 37.3333 25.6985 37.2631 25.5635 37.1228C25.4286 36.9772 25.3611 36.803 25.3611 36.6002ZM28.0871 32.6381H30.7263C31.5361 32.6381 32.1508 32.4925 32.5701 32.2013C32.9895 31.9049 33.1992 31.3382 33.1992 30.501C33.1992 29.6587 32.9895 29.0919 32.5701 28.8007C32.1508 28.5044 31.5361 28.3562 30.7263 28.3562H28.0871V32.6381Z" fill="black"/>
<path d="M35.9469 36.6158L37.7618 29.1907C38.2535 27.1681 39.8539 26.1541 42.5631 26.1489H46.4604C46.6388 26.1489 46.7858 26.2217 46.9015 26.3673C47.022 26.5129 47.0823 26.6819 47.0823 26.8743V36.6158C47.0823 36.8186 47.0148 36.9902 46.8798 37.1306C46.7448 37.2657 46.5834 37.3333 46.3954 37.3333H45.036C44.8383 37.3333 44.6744 37.2657 44.5443 37.1306C44.4189 36.9902 44.3563 36.8134 44.3563 36.6002V34.6347H39.2152L38.7307 36.6002C38.6825 36.8134 38.5741 36.9902 38.4054 37.1306C38.2366 37.2657 38.0583 37.3333 37.8703 37.3333H36.4458C36.2578 37.3333 36.1156 37.2631 36.0192 37.1228C35.9517 37.0292 35.918 36.9226 35.918 36.803C35.9228 36.7458 35.9324 36.6834 35.9469 36.6158ZM39.7503 32.4275H44.3563V28.3562H42.2955C41.8327 28.3562 41.4278 28.4992 41.0807 28.7851C40.7385 29.0659 40.5071 29.4455 40.3866 29.9239L39.7503 32.4275Z" fill="black"/>
<path d="M48.1452 37.1228C48.1307 37.0812 48.1235 37.037 48.1235 36.9902C48.1235 36.8758 48.1645 36.7458 48.2464 36.6002L50.0541 33.496C50.3096 33.0696 50.6061 32.6797 50.9435 32.3261C51.2809 31.9673 51.6063 31.7515 51.9197 31.6787C51.4665 31.5591 51.0978 31.3538 50.8134 31.0626C50.5338 30.7714 50.2807 30.4022 50.0541 29.9551L48.485 26.8899C48.4031 26.7287 48.3621 26.5857 48.3621 26.4609C48.3621 26.4245 48.3669 26.3881 48.3766 26.3517C48.4103 26.2061 48.5212 26.1333 48.7092 26.1333H50.3795C50.8134 26.1333 51.1604 26.3855 51.4207 26.8899L52.5415 29.0425C52.8259 29.5937 53.1296 29.9967 53.4526 30.2514C53.7756 30.501 54.1491 30.6258 54.5733 30.6258H54.8987V26.8899C54.8987 26.6871 54.9638 26.5103 55.094 26.3595C55.2289 26.2087 55.3904 26.1333 55.5784 26.1333H56.945C57.133 26.1333 57.2921 26.2087 57.4223 26.3595C57.5572 26.5103 57.6247 26.6871 57.6247 26.8899V30.6258H57.9501C58.3743 30.6258 58.7455 30.501 59.0637 30.2514C59.3866 30.0019 59.6903 29.5989 59.9747 29.0425L61.1027 26.8899C61.3582 26.3907 61.7029 26.1385 62.1367 26.1333H63.8143C64.0023 26.1333 64.1131 26.2061 64.1469 26.3517C64.1565 26.3881 64.1613 26.4245 64.1613 26.4609C64.1613 26.5805 64.1204 26.7235 64.0384 26.8899L62.4693 29.9551C62.2428 30.4022 61.9873 30.7714 61.7029 31.0626C61.4233 31.3538 61.0545 31.5591 60.5966 31.6787C60.9147 31.7515 61.2401 31.9673 61.5727 32.3261C61.9102 32.6849 62.209 33.0748 62.4693 33.496L64.2698 36.6002C64.3517 36.751 64.3951 36.881 64.4 36.9902C64.4 37.037 64.3927 37.0812 64.3783 37.1228C64.3301 37.2631 64.212 37.3333 64.024 37.3333H62.3609C62.1729 37.3333 61.9704 37.2631 61.7535 37.1228C61.5366 36.9772 61.3703 36.803 61.2546 36.6002L59.9747 34.4241C59.671 33.8938 59.3649 33.496 59.0564 33.2308C58.7527 32.9604 58.384 32.8253 57.9501 32.8253H57.6247V36.6158C57.6247 36.8186 57.5572 36.9902 57.4223 37.1306C57.2921 37.2657 57.133 37.3333 56.945 37.3333H55.5784C55.3904 37.3333 55.2289 37.2657 55.094 37.1306C54.9638 36.9902 54.8987 36.8186 54.8987 36.6158V32.8253H54.5733C54.1395 32.8253 53.7683 32.9604 53.4598 33.2308C53.1561 33.496 52.85 33.8938 52.5415 34.4241L51.2689 36.6002C51.1484 36.803 50.9797 36.9772 50.7627 37.1228C50.5506 37.2631 50.3506 37.3333 50.1626 37.3333H48.4995C48.3115 37.3333 48.1934 37.2631 48.1452 37.1228Z" fill="black"/>
<path d="M4.66663 45H8.66663" stroke="black"/>
<path d="M60 45H64" stroke="black"/>
<path d="M10.9333 47.5779V42.4262C10.9333 42.3186 10.9795 42.2262 11.0719 42.149C11.1642 42.0717 11.278 42.0331 11.4132 42.0331H12.3333C12.4619 42.0331 12.5707 42.0717 12.6598 42.149C12.7521 42.2262 12.7983 42.3186 12.7983 42.4262V44.2883H16.2016V42.4262C16.2016 42.3186 16.2478 42.2262 16.3401 42.149C16.4325 42.0717 16.5429 42.0331 16.6716 42.0331H17.5916C17.7269 42.0331 17.839 42.0717 17.928 42.149C18.0204 42.2262 18.0665 42.3186 18.0665 42.4262V47.5779C18.0665 47.6855 18.0187 47.7779 17.9231 47.8552C17.8307 47.9297 17.7203 47.9669 17.5916 47.9669H16.6716C16.5429 47.9669 16.4325 47.931 16.3401 47.8593C16.2478 47.7848 16.2016 47.6938 16.2016 47.5862V45.4593H12.7983V47.5862C12.7983 47.6938 12.7521 47.7848 12.6598 47.8593C12.5707 47.931 12.4619 47.9669 12.3333 47.9669H11.4132C11.2846 47.9669 11.1724 47.9297 11.0768 47.8552C10.9812 47.7779 10.9333 47.6855 10.9333 47.5779Z" fill="black"/>
<path d="M19.4041 47.5862L20.6458 43.6469C20.9821 42.5738 22.077 42.0359 23.9304 42.0331H26.5967C26.7187 42.0331 26.8193 42.0717 26.8984 42.149C26.9809 42.2262 27.0221 42.3159 27.0221 42.4179V47.5862C27.0221 47.6938 26.9759 47.7848 26.8836 47.8593C26.7912 47.931 26.6808 47.9669 26.5522 47.9669H25.6222C25.487 47.9669 25.3748 47.931 25.2858 47.8593C25.2 47.7848 25.1572 47.691 25.1572 47.5779V46.5352H21.6401L21.3086 47.5779C21.2756 47.691 21.2014 47.7848 21.086 47.8593C20.9706 47.931 20.8486 47.9669 20.72 47.9669H19.7455C19.6168 47.9669 19.5196 47.9297 19.4536 47.8552C19.4074 47.8055 19.3843 47.749 19.3843 47.6855C19.3876 47.6552 19.3942 47.6221 19.4041 47.5862ZM22.0061 45.3641H25.1572V43.2041H23.7474C23.4308 43.2041 23.1538 43.28 22.9163 43.4317C22.6822 43.5807 22.5239 43.7821 22.4414 44.0359L22.0061 45.3641Z" fill="black"/>
<path d="M32.6901 43.8124V42.4262C32.6901 42.3186 32.7362 42.2262 32.8286 42.149C32.9242 42.0717 33.0363 42.0331 33.1649 42.0331H34.09C34.2186 42.0331 34.3274 42.0717 34.4165 42.149C34.5088 42.2262 34.555 42.3186 34.555 42.4262V43.8124C34.555 44.48 34.9524 44.8138 35.7471 44.8138H37.6615V42.4262C37.6615 42.3186 37.7077 42.2262 37.8 42.149C37.8924 42.0717 38.0028 42.0331 38.1315 42.0331H39.0515C39.1868 42.0331 39.2989 42.0717 39.3879 42.149C39.4803 42.2262 39.5264 42.3186 39.5264 42.4262V47.5779C39.5264 47.6855 39.4786 47.7779 39.383 47.8552C39.2906 47.9297 39.1802 47.9669 39.0515 47.9669H38.1315C38.0028 47.9669 37.8924 47.931 37.8 47.8593C37.7077 47.7848 37.6615 47.6938 37.6615 47.5862V45.9848H35.7471C34.8073 45.9848 34.0619 45.8055 33.5112 45.4469C32.9638 45.0855 32.6901 44.5407 32.6901 43.8124Z" fill="black"/>
<path d="M40.869 47.5862L42.1106 43.6469C42.447 42.5738 43.5419 42.0359 45.3952 42.0331H48.0615C48.1835 42.0331 48.2841 42.0717 48.3633 42.149C48.4457 42.2262 48.4869 42.3159 48.4869 42.4179V47.5862C48.4869 47.6938 48.4408 47.7848 48.3484 47.8593C48.2561 47.931 48.1456 47.9669 48.017 47.9669H47.087C46.9518 47.9669 46.8397 47.931 46.7506 47.8593C46.6649 47.7848 46.622 47.691 46.622 47.5779V46.5352H43.1049L42.7735 47.5779C42.7405 47.691 42.6663 47.7848 42.5509 47.8593C42.4354 47.931 42.3134 47.9669 42.1848 47.9669H41.2103C41.0817 47.9669 40.9844 47.9297 40.9184 47.8552C40.8723 47.8055 40.8492 47.749 40.8492 47.6855C40.8525 47.6552 40.8591 47.6221 40.869 47.5862ZM43.471 45.3641H46.622V43.2041H45.2122C44.8956 43.2041 44.6186 43.28 44.3812 43.4317C44.147 43.5807 43.9887 43.7821 43.9063 44.0359L43.471 45.3641Z" fill="black"/>
<path d="M50.9178 47.2676C50.3077 46.7793 50.0026 46.0248 50.0026 45.0041C50.0026 43.9807 50.3077 43.2248 50.9178 42.7366C51.5312 42.2455 52.4496 42 53.6731 42H54.7762C55.5248 42 56.186 42.1628 56.7598 42.4883C57.337 42.8138 57.6255 43.2593 57.6255 43.8248C57.6255 43.9876 57.5678 44.1048 57.4524 44.1766C57.337 44.2455 57.2248 44.28 57.116 44.28H56.5274C56.224 44.28 55.9882 44.1283 55.82 43.8248C55.5759 43.389 55.1703 43.171 54.6031 43.171H53.7226C53.0003 43.171 52.5106 43.3007 52.2534 43.56C51.9962 43.8193 51.8675 44.2993 51.8675 45C51.8675 45.7007 51.9962 46.1821 52.2534 46.4441C52.5106 46.7034 53.0003 46.8331 53.7226 46.8331H54.707C55.2742 46.8331 55.6782 46.6152 55.9189 46.1793C56.0871 45.8731 56.3245 45.72 56.6312 45.72H57.2199C57.2793 45.72 57.3419 45.731 57.4079 45.7531C57.4771 45.7724 57.5464 45.8207 57.6156 45.8979C57.6882 45.9724 57.7245 46.0662 57.7245 46.1793C57.7245 46.7448 57.4376 47.1903 56.8637 47.5159C56.2899 47.8386 55.6287 48 54.8801 48H53.6731C52.4496 48 51.5312 47.7559 50.9178 47.2676Z" fill="black"/>
</svg>
