<svg width="24" height="24" viewBox="0 0 24 24" fill="none" xmlns="http://www.w3.org/2000/svg">
<path fill-rule="evenodd" clip-rule="evenodd" d="M18.4286 6.85714H4.71429C4.2409 6.85714 3.85714 7.2409 3.85714 7.71429V16.2857C3.85714 16.7591 4.2409 17.1429 4.71429 17.1429H18.4286C18.902 17.1429 19.2857 16.7591 19.2857 16.2857V7.71429C19.2857 7.2409 18.902 6.85714 18.4286 6.85714ZM4.71429 6C3.76751 6 3 6.76751 3 7.71429V16.2857C3 17.2325 3.76751 18 4.71429 18H18.4286C19.3753 18 20.1429 17.2325 20.1429 16.2857V7.71429C20.1429 6.76751 19.3753 6 18.4286 6H4.71429Z" fill="#C23503"/>
<path fill-rule="evenodd" clip-rule="evenodd" d="M10.233 12.4012L3.80396 7.25794L4.33941 6.58862L10.7685 11.7319C11.2381 12.1076 11.9053 12.1076 12.3749 11.7319L18.804 6.58862L19.3394 7.25794L12.9103 12.4012C12.1277 13.0273 11.0157 13.0273 10.233 12.4012Z" fill="#C23503"/>
</svg>
