<svg width="100" height="100" viewBox="0 0 100 100" fill="none" xmlns="http://www.w3.org/2000/svg">
<g clip-path="url(#clip0)">
<path d="M51.4766 84.2503V83.8608C49.4855 83.8391 47.5809 83.7309 45.7413 83.5794C44.7457 86.1549 43.3389 88.5573 41.5859 90.6999C44.8972 91.241 48.2519 91.544 51.6065 91.5873L51.4766 84.2503Z" fill="black"/>
<path d="M42.7113 69.9228C41.1097 62.2612 35.4609 56.028 27.9508 53.669C25.8731 53.0413 23.7305 52.7167 21.5662 52.7167C16.1988 52.7383 11.0045 54.7295 7.04384 58.3222C-1.76481 66.33 -2.39245 79.9867 5.61541 88.7953C13.6233 97.604 27.2799 98.2316 36.0886 90.2238C40.5903 86.1333 43.1658 80.3546 43.1441 74.273C43.1441 72.8229 42.9926 71.3512 42.7113 69.9228ZM21.5662 71.3728C25.2238 71.3728 28.4486 73.7968 29.4442 77.3246C30.6562 81.6748 28.1456 86.1765 23.7738 87.4102V89.3148C23.7738 90.5051 22.7998 91.479 21.6095 91.479C20.4191 91.479 19.4452 90.5051 19.4452 89.3148V87.4318C15.8741 86.4579 13.4068 83.2331 13.3852 79.5322C13.3852 78.3418 14.3591 77.3679 15.5495 77.3679C16.7398 77.3679 17.7138 78.3418 17.7138 79.5322C17.7138 81.6532 19.4452 83.363 21.5662 83.363C23.6872 83.363 25.397 81.6315 25.397 79.5105C25.397 77.3895 23.6656 75.6798 21.5446 75.6798C17.8436 75.6798 14.6188 73.1908 13.6666 69.6198C12.5195 65.2912 15.1166 60.7895 19.4668 59.6208V58.6901C19.4668 57.4997 20.4408 56.5258 21.6311 56.5258C22.8215 56.5258 23.7954 57.4997 23.7954 58.6901V59.664C27.3232 60.6596 29.7472 63.8844 29.7472 67.542C29.7472 68.7324 28.7733 69.7063 27.5829 69.7063C26.3926 69.7063 25.4186 68.7324 25.4186 67.542C25.4186 65.421 23.6872 63.6896 21.5662 63.6896C19.4452 63.6896 17.7354 65.3994 17.7138 67.542C17.7138 69.663 19.4452 71.3728 21.5662 71.3728Z" fill="black"/>
<path d="M51.4118 79.5105L51.2819 71.849C49.94 71.8273 48.6198 71.784 47.3645 71.6974C47.4295 72.5632 47.4728 73.4072 47.4728 74.2513C47.4728 75.9394 47.2996 77.6492 46.975 79.3157C48.4034 79.4456 49.8968 79.5105 51.4118 79.5105Z" fill="black"/>
<path d="M75.1107 43.6916C73.6173 44.4707 72.0374 45.0984 70.4142 45.5745C65.5446 47.0462 59.1599 47.847 52.4939 47.847C46.1093 47.847 40.0276 47.1112 35.3311 45.7477C33.7079 45.3148 32.1496 44.7088 30.6562 43.9513L30.8077 50.0546C33.2534 50.9636 35.5259 52.2622 37.582 53.8854C37.6469 53.907 37.6902 53.907 37.7551 53.9287C41.9105 54.9892 47.1481 55.5519 52.4939 55.5519C58.6838 55.5519 64.7654 54.7727 69.1589 53.4525C73.8554 52.0241 74.8943 50.5307 74.8943 50.2494C74.8943 49.9464 74.8726 49.665 75.1107 49.362V43.6916Z" fill="black"/>
<path d="M69.1373 35.0994C64.7438 33.7575 58.6621 33 52.4723 33C46.2391 33 40.3955 33.7575 36.0237 35.0994C31.457 36.4845 30.4615 37.848 30.4398 38.2809C30.4398 38.2809 30.4615 38.2809 30.4615 38.3241C30.5697 38.8003 31.8682 40.272 36.5215 41.6139C40.8284 42.8692 46.4988 43.5617 52.4723 43.5617C58.6621 43.5617 64.7221 42.8042 69.1156 41.484C73.8121 40.0772 74.8726 38.5839 74.8726 38.2809C74.8726 37.9995 73.8338 36.5278 69.1373 35.0994Z" fill="black"/>
<path d="M99.9567 94.9852V88.4923C98.5066 89.2282 96.9916 89.8558 95.4117 90.332C90.5637 91.8037 84.2224 92.6045 77.5347 92.6045C71.6046 92.6045 65.8259 91.9335 61.2809 90.7432C59.4196 90.267 57.6233 89.6177 55.8918 88.7737L56.0001 95.0501C56.0001 95.0717 56.0001 95.0717 56.0001 95.0934C56.0001 95.418 56.9523 96.8681 61.519 98.2749C65.8476 99.5951 71.6911 100.331 77.9459 100.331C84.1791 100.331 90.0443 99.5735 94.4161 98.21C98.9828 96.7815 99.9784 95.2882 99.9784 94.9852H99.9567Z" fill="black"/>
<path d="M75.0674 55.7683C73.574 56.5258 72.0157 57.1535 70.3925 57.6296C65.5229 59.1013 59.1382 59.9021 52.4506 59.9021C49.1609 59.9021 45.8928 59.6857 42.6464 59.2745C44.3994 61.6985 45.698 64.4255 46.5204 67.3256C48.3817 67.4555 50.3945 67.542 52.4722 67.542C52.5371 67.542 52.6237 67.542 52.6886 67.542C56.2381 63.6463 65.7826 61.6985 75.0674 61.4388V55.7683Z" fill="black"/>
<path d="M95.2602 78.3634C90.4339 79.7919 84.1575 80.571 77.578 80.571C71.1934 80.571 65.1117 79.8352 60.4152 78.4717C58.792 78.0172 57.2121 77.4112 55.6971 76.6537L55.7837 81.6315L55.8053 83.4495C57.4934 85.5489 65.5662 88.2542 77.5564 88.2542C83.8112 88.2542 89.7197 87.5184 94.1565 86.1765C98.8313 84.7481 99.8485 83.2764 99.8485 82.9734C99.8485 82.7353 99.9784 82.4756 99.9784 82.2592H100V76.5238C98.485 77.2813 96.9051 77.9306 95.2602 78.3634Z" fill="black"/>
<path d="M94.243 67.8666C89.8278 66.5248 83.7678 65.8105 77.578 65.8105H77.21C71.453 65.8105 65.9774 66.4598 61.7787 67.6502C57.2986 68.9055 55.762 70.3339 55.5672 70.9183C55.5455 70.9616 55.5455 70.9832 55.5455 71.0048C55.5455 71.0048 55.5455 71.0048 55.5888 71.0914C55.7187 71.5459 56.9956 73.0176 61.6488 74.3811C65.9558 75.6148 71.6262 76.3074 77.5996 76.3074C83.7678 76.3074 89.6114 75.5931 94.0482 74.2729C98.8529 72.8445 99.9351 71.3511 99.9567 71.0265V71.0048C99.9351 70.6802 98.8529 69.2518 94.243 67.8666Z" fill="black"/>
</g>
<defs>
<clipPath id="clip0">
<rect width="100" height="100" fill="white"/>
</clipPath>
</defs>
</svg>
