<svg width="100" height="100" viewBox="0 0 100 100" fill="none" xmlns="http://www.w3.org/2000/svg">
<path d="M54.6996 48.179C55.716 47.6592 56.8482 47.3844 58.0229 47.3844C59.9696 47.3844 61.7998 48.1401 63.1795 49.5126L66.1495 46.5429C73.4993 49.1192 82 47.4699 87.8756 41.5946C92.8194 36.6508 94.7691 29.8487 93.7284 23.4371C93.6137 22.731 93.1138 22.1486 92.4333 21.9289C91.7528 21.7089 91.0058 21.8877 90.5001 22.3936L86.0903 26.8035C82.499 30.3947 76.6761 30.3947 73.0849 26.8035C69.4933 23.2123 69.4933 17.3893 73.0849 13.7981L77.4947 9.38823C78.0007 8.88229 78.181 8.13527 77.9606 7.45447C77.7406 6.77336 77.1573 6.27465 76.451 6.15998C70.0396 5.11921 63.2373 7.06892 58.2938 12.0127C52.3309 17.9756 50.7261 26.6413 53.4686 34.0648L47.0271 40.5062L54.6996 48.179Z" fill="black"/>
<path d="M42.9616 59.8514L35.3213 52.2111L8.60538 78.9268C5.13154 82.4006 5.13154 88.0328 8.60538 91.5066C12.0792 94.9805 17.7114 94.9805 21.1852 91.5066L44.216 68.4761C41.8931 66.1408 41.4745 62.6152 42.9616 59.8514Z" fill="black"/>
<path d="M60.0015 52.7186C59.4552 52.1723 58.7389 51.899 58.0229 51.899C57.3069 51.899 56.5906 52.1723 56.0443 52.7186L54.4494 54.3134L26.0399 25.9039L27.3678 24.576C28.5777 23.3664 28.4275 21.3598 27.0485 20.3443L15.4573 11.8078C14.3434 10.9876 12.7976 11.1041 11.8195 12.0823L6.89794 17.0041C5.91977 17.9823 5.8033 19.5284 6.62345 20.642L15.1597 32.2331C16.1752 33.6118 18.1806 33.7635 19.3914 32.5524L20.7193 31.2242L49.1288 59.6338L47.4217 61.3409C46.3289 62.4337 46.3289 64.2053 47.4217 65.2981L73.6302 91.5066C77.1041 94.9805 82.7362 94.9805 86.21 91.5066C89.6839 88.0328 89.6839 82.4006 86.21 78.9268L60.0015 52.7186Z" fill="black"/>
</svg>
