<svg width="24" height="24" viewBox="0 0 24 24" fill="none" xmlns="http://www.w3.org/2000/svg">
<rect width="24" height="24" rx="6" fill="#834995"/>
<path d="M19.3446 3.94745C18.8486 3.49054 16.841 2.03363 12.365 2.01415C12.365 2.01415 7.08834 1.6978 4.51834 4.05689C3.08882 5.48632 2.585 7.58376 2.5303 10.1811C2.4756 12.7785 2.40921 17.6449 7.10004 18.9651H7.10391L7.10004 20.9805C7.10004 20.9805 7.06882 21.7968 7.60778 21.9608C8.25617 22.164 8.63891 21.543 9.25991 20.8751C9.59974 20.5079 10.0684 19.9689 10.4238 19.5588C13.6343 19.8283 16.099 19.2112 16.3801 19.1214C17.0285 18.9105 20.696 18.4418 21.2896 13.5752C21.9067 8.55236 20.9928 5.38089 19.3446 3.94745Z" fill="white"/>
<path d="M19.8878 13.2082C19.384 17.2701 16.4117 17.5279 15.8649 17.7037C15.6305 17.7779 13.4628 18.3169 10.7405 18.1412C10.7405 18.1412 8.70953 20.59 8.07679 21.2267C7.86979 21.4337 7.64327 21.4142 7.64718 21.004C7.64718 20.7346 7.66279 17.6569 7.66279 17.6569C7.65887 17.6569 7.65887 17.6569 7.66279 17.6569C3.6867 16.5554 3.92105 12.4114 3.96401 10.2437C4.00696 8.07604 4.41709 6.29891 5.62787 5.10378C7.8034 3.13134 12.2833 3.4243 12.2833 3.4243C16.068 3.43991 17.8803 4.58034 18.3021 4.96313C19.6964 6.1583 20.4073 9.01735 19.8878 13.2082Z" fill="#834995"/>
<path d="M14.4591 10.0521C14.4747 10.3879 13.9708 10.4114 13.9552 10.0755C13.9122 9.21619 13.5099 8.79832 12.6819 8.75145C12.346 8.73189 12.3773 8.22806 12.7092 8.24763C13.799 8.30619 14.4044 8.9311 14.4591 10.0521Z" fill="white"/>
<path d="M15.2514 10.4935C15.2904 8.83744 14.2554 7.54074 12.2908 7.39626C11.9588 7.37283 11.9939 6.86896 12.326 6.89239C14.5913 7.05648 15.7982 8.61487 15.7552 10.5052C15.7513 10.8411 15.2435 10.8255 15.2514 10.4935Z" fill="white"/>
<path d="M17.0873 11.0169C17.0911 11.3528 16.5834 11.3566 16.5834 11.0208C16.56 7.8376 14.4392 6.10343 11.8652 6.0839C11.5332 6.07999 11.5332 5.58008 11.8652 5.58008C14.7438 5.5996 17.0599 7.5876 17.0873 11.0169Z" fill="white"/>
<path d="M16.6464 14.8485V14.8564C16.2246 15.5984 15.4356 16.4187 14.6232 16.157L14.6154 16.1452C13.7913 15.9148 11.8502 14.915 10.6237 13.9385C9.99099 13.4385 9.41291 12.8488 8.96765 12.2824C8.56539 11.7786 8.15921 11.181 7.76473 10.4624C6.93282 8.95862 6.74926 8.28684 6.74926 8.28684C6.48756 7.47445 7.30386 6.68545 8.04982 6.26366H8.05769C8.417 6.07614 8.76069 6.13866 8.99113 6.41593C8.99113 6.41593 9.47547 6.99393 9.68243 7.27914C9.87773 7.54471 10.1394 7.9704 10.2761 8.20866C10.5144 8.63436 10.3659 9.06792 10.1316 9.24753L9.66291 9.62253C9.42469 9.81388 9.45591 10.1693 9.45591 10.1693C9.45591 10.1693 10.1511 12.7979 12.7485 13.4619C12.7485 13.4619 13.104 13.4932 13.2953 13.2549L13.6703 12.7862C13.8499 12.5519 14.2835 12.4035 14.7092 12.6418C15.2833 12.9659 16.0137 13.4698 16.498 13.9268C16.7714 14.1494 16.8339 14.4892 16.6464 14.8485Z" fill="white"/>
</svg>
