<svg width="24" height="24" viewBox="0 0 24 24" fill="none" xmlns="http://www.w3.org/2000/svg">
<rect width="24" height="24" rx="5" fill="#28D347"/>
<path fill-rule="evenodd" clip-rule="evenodd" d="M18.4536 5.47052C16.8632 3.87822 14.7481 3.00093 12.4947 3C7.85147 3 4.07254 6.77883 4.07068 11.4233C4.07005 12.908 4.45791 14.3573 5.19512 15.6348L4.00002 20L8.46573 18.8286C9.69622 19.4998 11.0815 19.8535 12.4913 19.8539H12.4948C17.1376 19.8539 20.9169 16.0748 20.9187 11.4301C20.9196 9.1791 20.0442 7.06271 18.4536 5.47052ZM12.4947 18.4313H12.4918C11.2355 18.4307 10.0033 18.0931 8.92819 17.4553L8.67263 17.3035L6.0226 17.9987L6.72993 15.415L6.5634 15.1501C5.8625 14.0353 5.49239 12.7468 5.49301 11.4238C5.49447 7.56346 8.63548 4.42275 12.4975 4.42275C14.3677 4.42338 16.1257 5.1526 17.4476 6.47606C18.7695 7.79951 19.4971 9.55865 19.4964 11.4295C19.4948 15.2902 16.354 18.4313 12.4947 18.4313ZM16.3353 13.1873C16.1249 13.0819 15.09 12.5729 14.897 12.5025C14.7042 12.4323 14.5637 12.3973 14.4235 12.6079C14.2831 12.8186 13.8798 13.2928 13.757 13.4331C13.6341 13.5736 13.5115 13.5913 13.3009 13.4859C13.0904 13.3805 12.4122 13.1582 11.6082 12.4411C10.9825 11.883 10.5601 11.1937 10.4373 10.9831C10.3146 10.7722 10.4362 10.6693 10.5296 10.5535C10.7575 10.2706 10.9856 9.9739 11.0558 9.83351C11.126 9.69302 11.0909 9.57007 11.0381 9.46475C10.9856 9.35944 10.5647 8.32339 10.3893 7.90182C10.2183 7.49155 10.045 7.54696 9.91567 7.54053C9.79303 7.53441 9.65264 7.53316 9.51225 7.53316C9.37197 7.53316 9.14391 7.58577 8.95091 7.79661C8.75802 8.00734 8.21432 8.51649 8.21432 9.55253C8.21432 10.5886 8.96855 11.5894 9.07376 11.7299C9.17898 11.8704 10.558 13.9965 12.6695 14.9081C13.1717 15.1252 13.5637 15.2545 13.8694 15.3516C14.3737 15.5118 14.8324 15.4891 15.1952 15.435C15.5996 15.3745 16.4404 14.9257 16.616 14.4341C16.7913 13.9424 16.7913 13.521 16.7386 13.4331C16.6861 13.3454 16.5457 13.2928 16.3353 13.1873Z" fill="white"/>
</svg>
