<svg width="100" height="100" viewBox="0 0 100 100" fill="none" xmlns="http://www.w3.org/2000/svg">
<g clip-path="url(#clip0)">
<path d="M67.3972 91.2536C66.9181 90.9522 65.4262 90.5692 65.0156 90.2544L56.5979 95.7841L49.7543 88.9404L55.6398 79.5647C55.4208 79.1677 55.4622 79.0993 55.2703 78.675L44.4297 76.7451L44.4707 66.1922L52.382 64.8235L48.4401 60.9771C45.1551 63.66 41.1311 65.2478 36.8332 65.2478H36.8196H36.8059C32.7405 65.2478 28.9357 63.8243 25.76 61.4153L21.7499 65.2478H13.9071C10.2936 65.2478 7.46037 66.4796 5.25672 69.0391C-1.18998 76.485 -0.108962 92.5265 0.39774 97.4402H68.574L67.3972 91.2536ZM20.5046 45.4012C21.0245 49.877 22.8999 53.8597 25.6373 56.7753C26.2122 57.3913 26.8144 57.9525 27.4575 58.4589C28.2787 59.1156 29.141 59.6768 30.0581 60.1558C32.1248 61.2234 34.3972 61.8394 36.8196 61.8394C39.2419 61.8394 41.5143 61.2234 43.5811 60.1558C44.4981 59.6768 45.3604 59.1156 46.1817 58.4589C46.825 57.9388 47.4409 57.3776 48.0157 56.7617C50.7395 53.8463 52.6147 49.9043 53.1348 45.456C53.1893 45.456 53.2306 45.4697 53.2853 45.4697C56.132 45.4697 58.4454 42.8143 58.4454 39.5431C58.4454 37.5584 57.5968 35.8201 56.2965 34.7389H18.2188C16.9185 35.8201 16.0699 37.5584 16.0699 39.5431C16.0699 42.5543 17.9998 45.0043 20.5046 45.4012ZM100 73.6654V69.1076L90.5153 67.3967C90.091 65.631 89.3926 63.9885 88.4759 62.4829L93.9918 54.5991L90.7614 51.3689L82.8504 56.8712C81.3448 55.9541 79.6886 55.2563 77.9367 54.8457L76.2531 45.3741H71.6955L69.9846 54.8594C68.219 55.2837 66.5765 55.9818 65.0709 56.8988L57.187 51.3828L53.9568 54.613L59.4591 62.5243C58.5421 64.0299 57.844 65.686 57.4334 67.438L47.9618 69.1213V73.6791L57.4471 75.39C57.8714 77.1557 58.5695 78.7982 59.4862 80.3038L53.9568 88.1876L57.187 91.4178L65.098 85.9155C66.6036 86.8326 68.26 87.5304 70.0117 87.941L71.6953 97.4128H76.2528L77.9638 87.9276C79.7294 87.5033 81.3719 86.8052 82.8775 85.8882L90.7614 91.4041L93.9918 88.1739L88.4893 80.2627C89.4066 78.7571 90.1044 77.101 90.515 75.349L100 73.6654ZM73.9671 78.4283C70.0799 78.4283 66.9318 75.2803 66.9318 71.3933C66.9318 67.5062 70.0799 64.3581 73.9671 64.3581C77.8543 64.3581 81.0023 67.5062 81.0023 71.3933C81.0023 75.2803 77.8543 78.4283 73.9671 78.4283ZM29.593 9.34897C23.8991 12.2507 19.4099 18.0541 17.7127 23.6932L17.3294 24.8977H14.2085V31.7413H17.6026H22.4208H24.4463H50.8353H52.8063H60.3066V31.4128V24.8977H57.241L56.8577 23.6932C55.1605 18.0541 50.6711 12.3054 44.9772 9.40372V22.2698V24.0765C44.9772 24.186 44.9772 24.2407 44.9772 24.2955C44.9224 24.8977 44.8129 25.4452 44.5392 25.9927C43.8272 27.3614 42.404 28.3469 40.7615 28.3469H39.8855H33.8631C32.3299 28.3469 30.9611 27.5257 30.2497 26.3212C29.9212 25.8284 29.7569 25.281 29.6474 24.6787C29.5927 24.4597 29.5927 24.2955 29.5927 24.0765V22.5435V9.34897H29.593ZM33.8634 26.5402H40.707C41.6925 26.5402 42.5137 25.9927 42.9517 25.1715C43.1707 24.7882 43.2799 24.405 43.2799 23.967V23.4742V21.4485V8.52774V6.66627V5.95453C43.2799 5.51654 43.1707 5.13329 43.061 4.75005C42.5682 3.49082 41.3093 2.56009 39.8855 2.56009H33.8631C32.5491 2.56009 31.4542 3.54557 31.3447 4.8048C31.3447 4.9143 31.2899 5.0238 31.2899 5.1333V6.66627V8.52774V21.6675V23.748V23.967C31.2899 24.5145 31.4544 25.0072 31.7282 25.4452C32.2209 26.1022 32.9874 26.5402 33.8634 26.5402Z" fill="black"/>
</g>
<defs>
<clipPath id="clip0">
<rect width="100" height="100" fill="white"/>
</clipPath>
</defs>
</svg>
